<svg id="Capa_1" enable-background="new 0 0 512 512" height="512" viewBox="0 0 512 512" width="512" xmlns="http://www.w3.org/2000/svg"><g><path d="m512 157.278h-70.927c1.323-4.133 2.044-8.533 2.044-13.099 0-23.744-19.317-43.06-43.06-43.06-20.717 0-39.744 11.74-49.249 29.8-9.519-18.015-28.519-29.721-49.206-29.721-23.743 0-43.06 19.317-43.06 43.061 0 4.537.71 8.91 2.017 13.02h-73.763v102.043h31.143v151.561h263.044v-151.56h31.017zm-135.862-9.598c3.74-9.882 13.353-16.521 23.919-16.521 7.179 0 13.02 5.84 13.02 13.02 0 7.179-5.841 13.02-13.02 13.02h-27.522zm-87.555-3.422c0-7.179 5.841-13.02 13.021-13.02 10.566 0 20.178 6.639 23.918 16.521l3.603 9.518h-27.522c-7.179.001-13.02-5.84-13.02-13.019zm-71.62 85.023v-41.962h117.477v41.962zm31.017 30.04h86.461v121.52h-86.461zm202.963 121.52h-86.462v-121.52h86.462zm31.016-151.56h-117.478v-41.962h117.478z"/><path d="m46.046 259.321h30.041v30.04h-30.041z"/><path d="m106.253 259.321h80.544v30.04h-80.544z"/><path d="m46.046 380.045h30.041v30.041h-30.041z"/><path d="m106.253 380.045h80.544v30.041h-80.544z"/><path d="m0 319.964h140.672v30.041h-140.672z"/></g></svg>